<svg width="1759" height="1760" xmlns="http://www.w3.org/2000/svg" xmlns:xlink="http://www.w3.org/1999/xlink" xml:space="preserve" overflow="hidden"><defs><filter id="fx0" x="-10%" y="-10%" width="120%" height="120%" filterUnits="userSpaceOnUse" primitiveUnits="userSpaceOnUse"><feComponentTransfer color-interpolation-filters="sRGB"><feFuncR type="discrete" tableValues="0 0"/><feFuncG type="discrete" tableValues="0 0"/><feFuncB type="discrete" tableValues="0 0"/><feFuncA type="linear" slope="0.4" intercept="0"/></feComponentTransfer><feGaussianBlur stdDeviation="6.11111 6.11111"/></filter><clipPath id="clip1"><rect x="696" y="358" width="1759" height="1760"/></clipPath></defs><g clip-path="url(#clip1)" transform="translate(-696 -358)"><rect x="696" y="358" width="1759" height="1760" fill="#FFFFFF" fill-opacity="0"/><path d="M966 626.43C966 513.777 1037.02 458 1149.69 458L2041.86 458C2154.53 458 2190 554.402 2190 667.056L2190 1813.02C2190 1925.68 2164.69 2017 2052.02 2017L1098.9 2017C986.232 2017 966 1925.68 966 1813.02L966 626.43Z" stroke="#999999" stroke-width="13.75" stroke-miterlimit="8" stroke-opacity="0.6" fill="#D4FAB4" fill-rule="evenodd"/><path d="M977 642.405C977 531.775 1047.09 477 1158.29 477L2038.8 477C2149.99 477 2185 571.671 2185 682.301L2185 1807.69C2185 1918.32 2160.02 2008 2048.82 2008L1108.16 2008C996.968 2008 977 1918.32 977 1807.69L977 642.405Z" fill="#BBF789" fill-rule="evenodd"/><path d="M974 1811 2182 1811C2182 1922.01 2157.02 2012 2045.82 2012L1105.16 2012C993.967 2012 974 1922.01 974 1811Z" fill="#D4FAB4" fill-rule="evenodd"/><rect x="976" y="1243" width="1208" height="568" fill="#D4FAB4"/><path d="M43.0652 209.671C18.3007 216.534 17.8945 114.769 0 20.7423 113.894 17.823 176.891-16.4883 179 9.9385 179 120.248 154.064 209.671 43.0652 209.671Z" fill="#FFF445" fill-rule="evenodd" transform="matrix(1 0 0 -1 2005 679)"/><g filter="url(#fx0)" transform="translate(1975 459)"><g><path d="M43.0652 209.671C18.3007 216.534 17.8945 114.769 0 20.7423 113.894 17.823 176.891-16.4883 179 9.9385 179 120.248 154.064 209.671 43.0652 209.671Z" fill="#D4FAB4" fill-rule="evenodd" transform="matrix(1 0 0 -1 20.2773 229.723)"/></g></g><path d="M43.0652 209.671C18.3007 216.534 17.8945 114.769 0 20.7423 113.894 17.823 176.891-16.4883 179 9.9385 179 120.248 154.064 209.671 43.0652 209.671Z" fill="#D4FAB4" fill-rule="evenodd" transform="matrix(1 0 0 -1 2005 679)"/><path d="M1132 1045.91C1132 987.47 1263.86 902 1320.41 902 1409.16 965.49 1485.61 1092.47 1586.64 1092.47 1699.96 1113.64 1764.13 982.421 1852.88 927.396 1909.43 927.396 2029 987.47 2029 1045.91L2029 1469.18C2029 1527.62 1983.16 1575 1926.6 1575 1821.47 1570.77 1716.35 1350.67 1611.22 1409.92 1473.33 1312.57 1360.01 1570.77 1234.4 1575 1177.85 1575 1132 1527.62 1132 1469.18L1132 1045.91Z" fill="#008000" fill-rule="evenodd"/><path d="M1245 1096.5C1245 1076.89 1260.22 1061 1279 1061 1297.78 1061 1313 1076.89 1313 1096.5 1313 1116.11 1297.78 1132 1279 1132 1260.22 1132 1245 1116.11 1245 1096.5Z" fill="#FFFFFF" fill-rule="evenodd" fill-opacity="0.4"/><path d="M1493 1295.5C1493 1275.89 1508.22 1260 1527 1260 1545.78 1260 1561 1275.89 1561 1295.5 1561 1315.11 1545.78 1331 1527 1331 1508.22 1331 1493 1315.11 1493 1295.5Z" fill="#FFFFFF" fill-rule="evenodd" fill-opacity="0.4"/><path d="M1617 1295.5C1617 1275.89 1632.45 1260 1651.5 1260 1670.55 1260 1686 1275.89 1686 1295.5 1686 1315.11 1670.55 1331 1651.5 1331 1632.45 1331 1617 1315.11 1617 1295.5Z" fill="#FFFFFF" fill-rule="evenodd" fill-opacity="0.4"/><path d="M1317 1167.5C1317 1147.89 1332.22 1132 1351 1132 1369.78 1132 1385 1147.89 1385 1167.5 1385 1187.11 1369.78 1203 1351 1203 1332.22 1203 1317 1187.11 1317 1167.5Z" fill="#FFFFFF" fill-rule="evenodd" fill-opacity="0.4"/><path d="M1181 1167.5C1181 1147.89 1196.45 1132 1215.5 1132 1234.55 1132 1250 1147.89 1250 1167.5 1250 1187.11 1234.55 1203 1215.5 1203 1196.45 1203 1181 1187.11 1181 1167.5Z" fill="#FFFFFF" fill-rule="evenodd" fill-opacity="0.4"/><path d="M1245 1241.5C1245 1221.89 1260.22 1206 1279 1206 1297.78 1206 1313 1221.89 1313 1241.5 1313 1261.11 1297.78 1277 1279 1277 1260.22 1277 1245 1261.11 1245 1241.5Z" fill="#FFFFFF" fill-rule="evenodd" fill-opacity="0.4"/><path d="M1818 1096.5C1818 1076.89 1833.22 1061 1852 1061 1870.78 1061 1886 1076.89 1886 1096.5 1886 1116.11 1870.78 1132 1852 1132 1833.22 1132 1818 1116.11 1818 1096.5Z" fill="#FFFFFF" fill-rule="evenodd" fill-opacity="0.4"/><path d="M1890 1167.5C1890 1147.89 1905.22 1132 1924 1132 1942.78 1132 1958 1147.89 1958 1167.5 1958 1187.11 1942.78 1203 1924 1203 1905.22 1203 1890 1187.11 1890 1167.5Z" fill="#FFFFFF" fill-rule="evenodd" fill-opacity="0.4"/><path d="M1754 1167.5C1754 1147.89 1769.45 1132 1788.5 1132 1807.55 1132 1823 1147.89 1823 1167.5 1823 1187.11 1807.55 1203 1788.5 1203 1769.45 1203 1754 1187.11 1754 1167.5Z" fill="#FFFFFF" fill-rule="evenodd" fill-opacity="0.4"/><path d="M1818 1241.5C1818 1221.89 1833.22 1206 1852 1206 1870.78 1206 1886 1221.89 1886 1241.5 1886 1261.11 1870.78 1277 1852 1277 1833.22 1277 1818 1261.11 1818 1241.5Z" fill="#FFFFFF" fill-rule="evenodd" fill-opacity="0.4"/><path d="M1251 1402C1251 1362.79 1281.67 1331 1319.5 1331 1357.33 1331 1388 1362.79 1388 1402 1388 1441.21 1357.33 1473 1319.5 1473 1281.67 1473 1251 1441.21 1251 1402Z" fill="#FFFFFF" fill-rule="evenodd" fill-opacity="0.4"/><path d="M1783 1401.5C1783 1362.56 1813.89 1331 1852 1331 1890.11 1331 1921 1362.56 1921 1401.5 1921 1440.44 1890.11 1472 1852 1472 1813.89 1472 1783 1440.44 1783 1401.5Z" fill="#FFFFFF" fill-rule="evenodd" fill-opacity="0.4"/></g></svg>