<svg width="1759" height="1760" xmlns="http://www.w3.org/2000/svg" xmlns:xlink="http://www.w3.org/1999/xlink" xml:space="preserve" overflow="hidden"><defs><filter id="fx0" x="-10%" y="-10%" width="120%" height="120%" filterUnits="userSpaceOnUse" primitiveUnits="userSpaceOnUse"><feComponentTransfer color-interpolation-filters="sRGB"><feFuncR type="discrete" tableValues="0 0"/><feFuncG type="discrete" tableValues="0 0"/><feFuncB type="discrete" tableValues="0 0"/><feFuncA type="linear" slope="0.4" intercept="0"/></feComponentTransfer><feGaussianBlur stdDeviation="6.11111 6.11111"/></filter><clipPath id="clip1"><rect x="696" y="358" width="1759" height="1760"/></clipPath></defs><g clip-path="url(#clip1)" transform="translate(-696 -358)"><rect x="696" y="358" width="1759" height="1760" fill="#FFFFFF" fill-opacity="0"/><path d="M966 626.43C966 513.777 1037.02 458 1149.69 458L2041.86 458C2154.53 458 2190 554.402 2190 667.056L2190 1813.02C2190 1925.68 2164.69 2017 2052.02 2017L1098.9 2017C986.232 2017 966 1925.68 966 1813.02L966 626.43Z" stroke="#999999" stroke-width="13.75" stroke-miterlimit="8" stroke-opacity="0.6" fill="#FFB979" fill-rule="evenodd"/><path d="M977 642.405C977 531.775 1047.09 477 1158.29 477L2038.8 477C2149.99 477 2185 571.671 2185 682.301L2185 1807.69C2185 1918.32 2160.02 2008 2048.82 2008L1108.16 2008C996.968 2008 977 1918.32 977 1807.69L977 642.405Z" fill="#FFAD64" fill-rule="evenodd"/><path d="M974 1811 2182 1811C2182 1922.01 2157.02 2012 2045.82 2012L1105.16 2012C993.967 2012 974 1922.01 974 1811Z" fill="#FFB979" fill-rule="evenodd"/><rect x="976" y="1243" width="1208" height="568" fill="#FFB979"/><path d="M43.0652 209.671C18.3007 216.534 17.8945 114.769 0 20.7423 113.894 17.823 176.891-16.4883 179 9.9385 179 120.248 154.064 209.671 43.0652 209.671Z" fill="#FFF445" fill-rule="evenodd" transform="matrix(1 0 0 -1 2005 679)"/><g filter="url(#fx0)" transform="translate(1975 459)"><g><path d="M43.0652 209.671C18.3007 216.534 17.8945 114.769 0 20.7423 113.894 17.823 176.891-16.4883 179 9.9385 179 120.248 154.064 209.671 43.0652 209.671Z" fill="#FFB979" fill-rule="evenodd" transform="matrix(1 0 0 -1 20.2773 229.723)"/></g></g><path d="M43.0652 209.671C18.3007 216.534 17.8945 114.769 0 20.7423 113.894 17.823 176.891-16.4883 179 9.9385 179 120.248 154.064 209.671 43.0652 209.671Z" fill="#FFB979" fill-rule="evenodd" transform="matrix(1 0 0 -1 2005 679)"/><path d="M1251.09 1600.59 1179 792 1972 792 1899.91 1600.59 1574.62 1692" fill="#E34F26" fill-rule="evenodd"/><path d="M1576 1622 1838.37 1549.9 1900 857 1576 857" fill="#EF652A" fill-rule="evenodd"/><path d="M1576 1157.57 1444.49 1157.57 1435.72 1055.52 1576 1055.52 1576 957 1574.25 957 1327 957 1328.75 983.391 1353.3 1257.85 1576 1257.85ZM1576 1416.2 1574.25 1416.2 1463.77 1386.29 1456.76 1307.12 1404.15 1307.12 1358.56 1307.12 1370.84 1463.7 1574.25 1520 1576 1520Z" fill="#EBEBEB" fill-rule="evenodd"/><path d="M1575 1157.57 1575 1257.85 1697.75 1257.85 1685.47 1386.29 1575 1416.2 1575 1520 1778.41 1463.7 1780.16 1446.11 1802.96 1183.96 1806.46 1157.57 1778.41 1157.57ZM1575 957 1575 1018.58 1575 1055.52 1575 1055.52 1815.23 1055.52 1815.23 1055.52 1815.23 1055.52 1816.99 1034.41 1822.25 983.391 1824 957Z" fill="#FFFFFF" fill-rule="evenodd"/></g></svg>