<svg width="1759" height="1760" xmlns="http://www.w3.org/2000/svg" xmlns:xlink="http://www.w3.org/1999/xlink" xml:space="preserve" overflow="hidden"><defs><filter id="fx0" x="-10%" y="-10%" width="120%" height="120%" filterUnits="userSpaceOnUse" primitiveUnits="userSpaceOnUse"><feComponentTransfer color-interpolation-filters="sRGB"><feFuncR type="discrete" tableValues="0 0"/><feFuncG type="discrete" tableValues="0 0"/><feFuncB type="discrete" tableValues="0 0"/><feFuncA type="linear" slope="0.4" intercept="0"/></feComponentTransfer><feGaussianBlur stdDeviation="6.11111 6.11111"/></filter><clipPath id="clip1"><rect x="696" y="358" width="1759" height="1760"/></clipPath></defs><g clip-path="url(#clip1)" transform="translate(-696 -358)"><rect x="696" y="358" width="1759" height="1760" fill="#FFFFFF" fill-opacity="0"/><path d="M966 626.43C966 513.777 1037.02 458 1149.69 458L2041.86 458C2154.53 458 2190 554.402 2190 667.056L2190 1813.02C2190 1925.68 2164.69 2017 2052.02 2017L1098.9 2017C986.232 2017 966 1925.68 966 1813.02L966 626.43Z" stroke="#999999" stroke-width="13.75" stroke-miterlimit="8" stroke-opacity="0.6" fill="#FFF445" fill-rule="evenodd"/><path d="M977 642.405C977 531.775 1047.09 477 1158.29 477L2038.8 477C2149.99 477 2185 571.671 2185 682.301L2185 1807.69C2185 1918.32 2160.02 2008 2048.82 2008L1108.16 2008C996.968 2008 977 1918.32 977 1807.69L977 642.405Z" fill="#FFE043" fill-rule="evenodd"/><path d="M974 1811 2182 1811C2182 1922.01 2157.02 2012 2045.82 2012L1105.16 2012C993.967 2012 974 1922.01 974 1811Z" fill="#FFF445" fill-rule="evenodd"/><rect x="976" y="1243" width="1208" height="568" fill="#FFF445"/><path d="M43.0652 209.671C18.3007 216.534 17.8945 114.769 0 20.7423 113.894 17.823 176.891-16.4883 179 9.9385 179 120.248 154.064 209.671 43.0652 209.671Z" fill="#FFF445" fill-rule="evenodd" transform="matrix(1 0 0 -1 2005 679)"/><path d="M1569.27 844.371C1600.54 842.569 1631.72 847.567 1662.17 854.201 1698.74 862.451 1734.47 874.423 1768.64 889.844 1789.5 899.631 1809.86 910.791 1828.18 924.861 1840.64 934.615 1852.53 945.797 1860.09 959.889 1865.09 969.039 1866.63 980.254 1863.03 990.161 1858.05 1003.95 1847.71 1014.92 1836.93 1024.46 1807.84 1049.01 1772.93 1065.32 1737.65 1078.85 1694.92 1094.79 1650.38 1106.29 1605.02 1111.4 1573.6 1115.1 1541.86 1111.9 1510.81 1106.66 1468.54 1099.4 1426.98 1087.86 1387.22 1071.79 1365.95 1063.02 1345.14 1052.82 1326.11 1039.81 1315.22 1032.25 1304.85 1023.7 1296.6 1013.25 1290.95 1005.91 1286.25 997.257 1286.01 987.8 1285.83 978.408 1289.95 969.577 1295.13 961.976 1301.83 952.332 1310.21 943.952 1319.24 936.483 1346.88 914.042 1379.02 897.94 1411.73 884.276 1431.41 876.202 1451.53 869.217 1471.93 863.197 1503.7 853.982 1536.22 846.765 1569.27 844.371Z" fill="#41B349" fill-rule="evenodd"/><path d="M1906.4 1007C1919.35 1026.4 1930.46 1047.03 1939.6 1068.5 1946.64 1084.49 1951.85 1101.19 1957.04 1117.85 1978.96 1193.76 1978.38 1276.08 1954.79 1351.53 1943.34 1389.61 1926.6 1426.25 1904.04 1459.07 1892.91 1475.02 1880.44 1490.26 1865.43 1502.72 1858.99 1507.9 1852.05 1512.78 1844.13 1515.35 1837.85 1517.38 1831.54 1514.25 1826 1511.55 1807.76 1501.74 1793.29 1486.41 1780.16 1470.68 1756.21 1440.9 1737.86 1406.77 1725.06 1370.83 1708.43 1325.75 1700.7 1277.45 1702.18 1229.44 1703.25 1197.43 1708.23 1165.56 1716.91 1134.75 1759.89 1121.42 1802.14 1104.37 1840.08 1079.91 1856.63 1069.09 1872.28 1056.62 1885.29 1041.67 1894.12 1031.36 1901.69 1019.79 1906.4 1007Z" fill="#708FC5" fill-rule="evenodd"/><path d="M1204.27 1115.51C1214.98 1082.65 1229.93 1051.18 1248.43 1022 1254.41 1034.27 1262.8 1045.26 1272.49 1054.83 1289.22 1071.28 1309 1084.27 1329.59 1095.32 1359.14 1111.18 1390.69 1122.9 1422.65 1132.85 1440.48 1216.7 1435.06 1305.19 1408.08 1386.48 1396.69 1420.24 1381.66 1453.12 1360.6 1481.98 1352.01 1493.33 1342.6 1504.5 1330.52 1512.26 1326.36 1514.84 1321.31 1517.29 1316.41 1515.23 1304.08 1510.88 1293.72 1502.44 1284.15 1493.76 1253.59 1464.9 1231.21 1428.36 1214.28 1390.11 1204.41 1366.55 1196.17 1342.22 1190.99 1317.16 1176.59 1250.4 1182.04 1179.92 1204.27 1115.51Z" fill="#DA4A37" fill-rule="evenodd"/><path d="M1471.71 1146C1517.17 1155.88 1564.09 1162.58 1610.64 1157.3 1629.31 1155.21 1647.88 1152.08 1666.24 1148.04 1649.68 1222.54 1653.09 1301.57 1677.51 1373.96 1691.97 1418.65 1713.88 1461.1 1743.15 1497.93 1761.68 1520.71 1783.22 1542.09 1810 1554.92 1779.06 1577.04 1744.99 1594.87 1708.99 1607.21 1614.71 1640.14 1507.91 1635.62 1416.9 1594.49 1392.65 1583.69 1369.56 1570.33 1348 1554.89 1363.63 1547.02 1376.42 1534.61 1387.75 1521.48 1414.83 1489.18 1433.6 1450.79 1448.03 1411.44 1478.05 1326.84 1486.82 1234.57 1471.71 1146Z" fill="#F6CA38" fill-rule="evenodd"/><g filter="url(#fx0)" transform="translate(1975 459)"><g><path d="M43.0652 209.671C18.3007 216.534 17.8945 114.769 0 20.7423 113.894 17.823 176.891-16.4883 179 9.9385 179 120.248 154.064 209.671 43.0652 209.671Z" fill="#FFF445" fill-rule="evenodd" transform="matrix(1 0 0 -1 20.2773 229.723)"/></g></g><path d="M43.0652 209.671C18.3007 216.534 17.8945 114.769 0 20.7423 113.894 17.823 176.891-16.4883 179 9.9385 179 120.248 154.064 209.671 43.0652 209.671Z" fill="#FFF445" fill-rule="evenodd" transform="matrix(1 0 0 -1 2005 679)"/></g></svg>